<svg data-v-0dd9719b="" version="1.0" xmlns="http://www.w3.org/2000/svg" xmlns:xlink="http://www.w3.org/1999/xlink" width="100%" height="100%" viewBox="0 0 340.000000 250.000000" preserveAspectRatio="xMidYMid meet" color-interpolation-filters="sRGB" style="margin: auto;"> <rect data-v-0dd9719b="" x="0" y="0" width="100%" height="100%" fill="#fff" fill-opacity="1" class="background"></rect> <rect data-v-0dd9719b="" x="0" y="0" width="100%" height="100%" fill="url(#watermark)" fill-opacity="1" class="watermarklayer"></rect> <g data-v-0dd9719b="" fill="#333" class="icon-text-wrapper icon-svg-group iconsvg" transform="translate(72.31999969482422,95)"><g class="iconsvg-imagesvg" transform="translate(0,0)"><g><rect fill="#333" fill-opacity="0" stroke-width="2" x="0" y="0" width="60" height="60" class="image-rect"></rect> <svg x="0" y="0" width="60" height="60" filtersec="colorsb5892775264" class="image-svg-svg primary" style="overflow: visible;"><svg xmlns="http://www.w3.org/2000/svg" viewBox="0 0 100 100"><path d="M50.66 44.38C61.79 35.44 71.1 25.58 63.78 0H0v28.64c29.81-6.7 41.22 4.03 50.66 15.74z" fill="#955ba5"></path><path d="M55.62 50.66C64.56 61.79 74.42 71.1 100 63.78V0H71.36c6.7 29.81-4.03 41.22-15.74 50.66z" fill="#1488c8"></path><path d="M49.34 55.62C38.21 64.56 28.9 74.42 36.22 100H100V71.36c-29.81 6.7-41.22-4.03-50.66-15.74z" fill="#e2413e"></path><path d="M44.38 49.34C35.44 38.21 25.58 28.9 0 36.22V100h28.64c-6.7-29.81 4.03-41.22 15.74-50.66z" fill="#379154"></path></svg></svg> <!----></g></g> <g transform="translate(67,2.782510757446289)"><g data-gra="path-name" fill-rule="" class="tp-name iconsvg-namesvg"><g transform="scale(1)"><g><path d="M10.06-17.94L10.06-17.94Q11.75-17.94 12.82-17.47 13.89-17 14.73-16.32L14.73-16.32Q15.03-16.1 15.23-16.1L15.23-16.1Q15.7-16.1 15.85-17.59L15.85-17.59 16.42-17.59Q16.37-16.62 16.35-15.24 16.32-13.86 16.32-11.58L16.32-11.58 15.75-11.58Q15.58-13.07 15.22-14.18 14.86-15.28 13.89-16.08L13.89-16.08Q13.29-16.65 12.41-16.97 11.53-17.29 10.63-17.29L10.63-17.29Q9.27-17.29 8.3-16.59 7.33-15.88 6.71-14.66 6.09-13.44 5.79-11.91 5.49-10.39 5.49-8.75L5.49-8.75Q5.49-4.27 6.72-2.21 7.95-0.15 10.26-0.15L10.26-0.15Q10.86-0.15 11.31-0.3 11.75-0.45 12.03-0.65L12.03-0.65Q12.37-0.89 12.5-1.18 12.62-1.47 12.62-1.94L12.62-1.94 12.62-4.37Q12.62-5.52 12.44-6.08 12.25-6.63 11.7-6.83 11.16-7.03 10.11-7.06L10.11-7.06 10.11-7.55Q10.63-7.53 11.37-7.52 12.1-7.5 12.9-7.49 13.69-7.48 14.36-7.48L14.36-7.48Q15.41-7.48 16.27-7.5 17.14-7.53 17.69-7.55L17.69-7.55 17.69-7.06Q17-7.01 16.78-6.66 16.57-6.31 16.57-4.92L16.57-4.92 16.57 0 16.08 0Q16.05-0.42 15.89-0.92 15.73-1.42 15.36-1.42L15.36-1.42Q15.18-1.42 14.9-1.33 14.61-1.24 14.01-0.89L14.01-0.89Q13.09-0.37 12.08-0.01 11.06 0.35 9.94 0.35L9.94 0.35Q5.59 0.35 3.33-2.01 1.07-4.37 1.07-8.6L1.07-8.6Q1.07-11.43 2.22-13.52 3.38-15.6 5.4-16.77 7.43-17.94 10.06-17.94ZM32.4-17.59L32.4-17.59Q32.3-16.47 32.26-15.43 32.23-14.39 32.23-13.81L32.23-13.81Q32.23-13.27 32.25-12.77 32.28-12.27 32.3-11.93L32.3-11.93 31.73-11.93Q31.41-13.86 30.84-14.97 30.26-16.08 29.43-16.55 28.6-17.02 27.46-17.02L27.46-17.02 26.64-17.02Q25.92-17.02 25.54-16.9 25.17-16.77 25.05-16.4 24.92-16.03 24.92-15.26L24.92-15.26 24.92-2.78Q24.92-1.81 25.12-1.34 25.32-0.87 25.89-0.72 26.46-0.57 27.58-0.55L27.58-0.55 27.58 0Q26.81-0.02 25.59-0.05 24.38-0.07 23.03-0.07L23.03-0.07Q21.96-0.07 20.95-0.05 19.93-0.02 19.11 0L19.11 0 19.11-0.5Q19.9-0.55 20.3-0.7 20.7-0.84 20.83-1.29 20.97-1.74 20.97-2.63L20.97-2.63 20.97-14.96Q20.97-15.88 20.83-16.31 20.7-16.75 20.29-16.91 19.88-17.07 19.11-17.09L19.11-17.09 19.11-17.59Q20.45-17.57 22.01-17.54 23.58-17.52 24.97-17.52 26.36-17.52 27.21-17.52L27.21-17.52Q28.35-17.52 29.8-17.53 31.26-17.54 32.4-17.59ZM24.18-8.99L28.7-8.99Q28.7-8.99 28.7-8.75 28.7-8.5 28.7-8.5L28.7-8.5 24.18-8.5Q24.18-8.5 24.18-8.75 24.18-8.99 24.18-8.99L24.18-8.99ZM28.75-12.27L29.32-12.27Q29.22-10.86 29.23-10.11 29.25-9.37 29.25-8.75L29.25-8.75Q29.25-8.13 29.27-7.38 29.29-6.63 29.39-5.22L29.39-5.22 28.82-5.22Q28.67-6.09 28.35-6.83 28.03-7.58 27.41-8.04 26.79-8.5 25.79-8.5L25.79-8.5 25.79-8.99Q26.79-8.99 27.38-9.54 27.98-10.09 28.29-10.85 28.6-11.6 28.75-12.27L28.75-12.27ZM48.92-17.59L48.92-17.59Q48.82-16.32 48.79-15.16 48.75-13.99 48.75-13.37L48.75-13.37Q48.75-12.82 48.77-12.32 48.8-11.83 48.82-11.48L48.82-11.48 48.25-11.48Q47.86-13.57 47.25-14.78 46.64-16 45.79-16.51 44.95-17.02 43.81-17.02L43.81-17.02 43.23-17.02 43.23-2.83Q43.23-1.84 43.45-1.34 43.66-0.84 44.23-0.68 44.8-0.52 45.89-0.5L45.89-0.5 45.89 0Q45.12-0.02 43.84-0.05 42.56-0.07 41.17-0.07L41.17-0.07Q39.81-0.07 38.59-0.05 37.37-0.02 36.62 0L36.62 0 36.62-0.5Q37.74-0.52 38.31-0.68 38.89-0.84 39.08-1.34 39.28-1.84 39.28-2.83L39.28-2.83 39.28-17.02 38.74-17.02Q37.59-17.02 36.75-16.51 35.9-16 35.31-14.8 34.71-13.59 34.26-11.48L34.26-11.48 33.69-11.48Q33.74-11.83 33.75-12.32 33.77-12.82 33.77-13.37L33.77-13.37Q33.77-13.99 33.73-15.16 33.69-16.32 33.59-17.59L33.59-17.59Q34.74-17.57 36.09-17.54 37.44-17.52 38.81-17.52 40.18-17.52 41.27-17.52L41.27-17.52Q42.39-17.52 43.74-17.52 45.1-17.52 46.46-17.54 47.83-17.57 48.92-17.59ZM66.17 0L66.17 0 66.17-0.5Q66.96-0.55 67.36-0.7 67.76-0.84 67.89-1.29 68.03-1.74 68.03-2.63L68.03-2.63 68.03-14.96Q68.03-15.88 67.89-16.31 67.76-16.75 67.35-16.91 66.94-17.07 66.17-17.09L66.17-17.09 66.17-17.59Q66.84-17.57 67.92-17.54 69-17.52 70.07-17.52L70.07-17.52Q71.21-17.52 72.22-17.54 73.22-17.57 73.85-17.59L73.85-17.59 73.85-17.09Q73.05-17.07 72.64-16.91 72.23-16.75 72.11-16.31 71.98-15.88 71.98-14.96L71.98-14.96 71.98-2.63Q71.98-1.74 72.12-1.29 72.26-0.84 72.65-0.7 73.05-0.55 73.85-0.5L73.85-0.5 73.85 0Q73.22-0.05 72.22-0.06 71.21-0.07 70.07-0.07L70.07-0.07Q69-0.07 67.92-0.06 66.84-0.05 66.17 0ZM55.63 0L55.63 0 55.63-0.5Q56.43-0.55 56.83-0.7 57.22-0.84 57.36-1.29 57.5-1.74 57.5-2.63L57.5-2.63 57.5-14.96Q57.5-15.88 57.36-16.31 57.22-16.75 56.81-16.91 56.4-17.07 55.63-17.09L55.63-17.09 55.63-17.59Q56.28-17.57 57.31-17.54 58.34-17.52 59.56-17.52L59.56-17.52Q60.6-17.52 61.62-17.54 62.64-17.57 63.31-17.59L63.31-17.59 63.31-17.09Q62.52-17.07 62.11-16.91 61.7-16.75 61.57-16.31 61.45-15.88 61.45-14.96L61.45-14.96 61.45-2.63Q61.45-1.74 61.58-1.29 61.72-0.84 62.12-0.7 62.52-0.55 63.31-0.5L63.31-0.5 63.31 0Q62.64-0.05 61.62-0.06 60.6-0.07 59.56-0.07L59.56-0.07Q58.34-0.07 57.31-0.06 56.28-0.05 55.63 0ZM69.65-8.6L59.83-8.6 59.83-9.09 69.65-9.09 69.65-8.6ZM84.33-17.94L84.33-17.94Q86.96-17.94 88.94-16.87 90.92-15.8 92.01-13.8 93.1-11.8 93.1-8.94L93.1-8.94Q93.1-6.16 91.98-4.07 90.87-1.99 88.87-0.82 86.87 0.35 84.31 0.35L84.31 0.35Q81.67 0.35 79.7-0.72 77.72-1.79 76.63-3.8 75.54-5.81 75.54-8.65L75.54-8.65Q75.54-11.43 76.67-13.52 77.8-15.6 79.77-16.77 81.75-17.94 84.33-17.94ZM84.23-17.49L84.23-17.49Q82.84-17.49 81.81-16.37 80.78-15.26 80.22-13.29 79.66-11.33 79.66-8.75L79.66-8.75Q79.66-6.11 80.29-4.16 80.93-2.21 82.01-1.16 83.09-0.1 84.41-0.1L84.41-0.1Q85.8-0.1 86.83-1.22 87.86-2.34 88.42-4.31 88.98-6.29 88.98-8.85L88.98-8.85Q88.98-11.5 88.34-13.44 87.71-15.38 86.63-16.44 85.55-17.49 84.23-17.49ZM111.19-17.59L111.19-17.59 111.19-17.09Q110.4-17 110-16.68 109.6-16.37 109.46-15.7 109.33-15.03 109.33-13.81L109.33-13.81 109.33 0.05Q109.03 0.02 108.72 0.02 108.41 0.02 108.06 0.05L108.06 0.05 97.28-13.62 97.28-4.07Q97.28-2.71 97.43-1.98 97.57-1.24 98.08-0.93 98.59-0.62 99.69-0.5L99.69-0.5 99.69 0Q99.21-0.05 98.44-0.06 97.67-0.07 97-0.07L97-0.07Q96.43-0.07 95.84-0.06 95.24-0.05 94.84 0L94.84 0 94.84-0.5Q95.64-0.62 96.03-0.92 96.43-1.22 96.57-1.9 96.7-2.58 96.7-3.78L96.7-3.78 96.7-14.96Q96.7-15.88 96.57-16.31 96.43-16.75 96.02-16.91 95.61-17.07 94.84-17.09L94.84-17.09 94.84-17.59Q95.24-17.57 95.84-17.54 96.43-17.52 97-17.52L97-17.52Q97.6-17.52 98.15-17.54 98.69-17.57 99.14-17.59L99.14-17.59 108.76-5.74 108.76-13.52Q108.76-14.88 108.61-15.62 108.46-16.35 107.95-16.67 107.44-17 106.35-17.09L106.35-17.09 106.35-17.59Q106.82-17.57 107.59-17.54 108.36-17.52 109.03-17.52L109.03-17.52Q109.63-17.52 110.21-17.54 110.79-17.57 111.19-17.59ZM121.8-17.94L121.8-17.94Q123.49-17.94 124.56-17.47 125.63-17 126.47-16.32L126.47-16.32Q126.77-16.1 126.97-16.1L126.97-16.1Q127.44-16.1 127.59-17.59L127.59-17.59 128.16-17.59Q128.11-16.62 128.09-15.24 128.06-13.86 128.06-11.58L128.06-11.58 127.49-11.58Q127.32-13.07 126.96-14.18 126.6-15.28 125.63-16.08L125.63-16.08Q125.03-16.65 124.15-16.97 123.27-17.29 122.37-17.29L122.37-17.29Q121.01-17.29 120.04-16.59 119.07-15.88 118.45-14.66 117.82-13.44 117.53-11.91 117.23-10.39 117.23-8.75L117.23-8.75Q117.23-4.27 118.46-2.21 119.69-0.15 122-0.15L122-0.15Q122.6-0.15 123.04-0.3 123.49-0.45 123.76-0.65L123.76-0.65Q124.11-0.89 124.24-1.18 124.36-1.47 124.36-1.94L124.36-1.94 124.36-4.37Q124.36-5.52 124.17-6.08 123.99-6.63 123.44-6.83 122.89-7.03 121.85-7.06L121.85-7.06 121.85-7.55Q122.37-7.53 123.1-7.52 123.84-7.5 124.63-7.49 125.43-7.48 126.1-7.48L126.1-7.48Q127.14-7.48 128.01-7.5 128.88-7.53 129.43-7.55L129.43-7.55 129.43-7.06Q128.73-7.01 128.52-6.66 128.31-6.31 128.31-4.92L128.31-4.92 128.31 0 127.81 0Q127.79-0.42 127.63-0.92 127.47-1.42 127.09-1.42L127.09-1.42Q126.92-1.42 126.63-1.33 126.35-1.24 125.75-0.89L125.75-0.89Q124.83-0.37 123.81-0.01 122.79 0.35 121.68 0.35L121.68 0.35Q117.33 0.35 115.07-2.01 112.81-4.37 112.81-8.6L112.81-8.6Q112.81-11.43 113.96-13.52 115.12-15.6 117.14-16.77 119.17-17.94 121.8-17.94Z" transform="translate(-1.0700000524520874, 17.940000534057617)"></path></g> <!----> <!----> <!----> <!----> <!----> <!----> <g data-gra="path-name-1" fill="#333" transform="translate(0,21.290000915527344)"><g transform="scale(1.00714)"><path d="M30.8-31.65L30.8-31.65 30.8-30.8Q29.37-30.49 27.74-29.55 26.11-28.61 24.32-26.51L24.32-26.51 15.91-16.5 18.51-20.21 29.15-3.62Q29.77-2.59 30.49-1.97 31.2-1.34 32.37-0.89L32.37-0.89 32.37 0Q30.8-0.09 28.88-0.11 26.96-0.13 25.39-0.13L25.39-0.13Q24.45-0.13 23.11-0.11 21.77-0.09 19.71 0L19.71 0 19.71-0.89Q21.55-0.98 21.93-1.41 22.31-1.83 21.59-2.91L21.59-2.91 15.11-13.41Q14.48-14.44 13.99-14.95 13.5-15.47 13.01-15.67 12.52-15.87 11.71-15.91L11.71-15.91 11.71-16.85Q13.68-16.9 15.22-17.93 16.76-18.95 18.6-21.06L18.6-21.06 21.23-24.23Q22.93-26.24 23.22-27.69 23.51-29.15 22.64-29.95 21.77-30.76 19.98-30.8L19.98-30.8 19.98-31.65Q21.64-31.61 23.13-31.56 24.63-31.52 26.6-31.52L26.6-31.52Q29.19-31.52 30.8-31.65ZM15.33-31.65L15.33-31.65 15.33-30.76Q13.9-30.71 13.17-30.42 12.43-30.13 12.2-29.35 11.98-28.57 11.98-26.91L11.98-26.91 11.98-4.74Q11.98-3.13 12.23-2.32 12.47-1.52 13.19-1.25 13.9-0.98 15.33-0.89L15.33-0.89 15.33 0Q14.13-0.09 12.29-0.11 10.46-0.13 8.58-0.13L8.58-0.13Q6.44-0.13 4.54-0.11 2.64-0.09 1.52 0L1.52 0 1.52-0.89Q2.95-0.98 3.67-1.25 4.38-1.52 4.63-2.32 4.87-3.13 4.87-4.74L4.87-4.74 4.87-26.91Q4.87-28.57 4.63-29.35 4.38-30.13 3.64-30.42 2.91-30.71 1.52-30.76L1.52-30.76 1.52-31.65Q2.64-31.61 4.54-31.56 6.44-31.52 8.58-31.52L8.58-31.52Q10.46-31.52 12.29-31.56 14.13-31.61 15.33-31.65ZM47.83-32.28L47.83-32.28Q52.57-32.28 56.13-30.35 59.68-28.43 61.65-24.83 63.61-21.23 63.61-16.09L63.61-16.09Q63.61-11.09 61.6-7.33 59.59-3.58 55.99-1.48 52.39 0.63 47.79 0.63L47.79 0.63Q43.05 0.63 39.5-1.3 35.94-3.22 33.98-6.84 32.01-10.46 32.01-15.56L32.01-15.56Q32.01-20.56 34.04-24.32 36.08-28.07 39.63-30.18 43.18-32.28 47.83-32.28ZM47.65-31.47L47.65-31.47Q45.15-31.47 43.3-29.46 41.44-27.45 40.44-23.92 39.43-20.39 39.43-15.74L39.43-15.74Q39.43-11 40.57-7.49 41.71-3.98 43.65-2.08 45.6-0.18 47.97-0.18L47.97-0.18Q50.47-0.18 52.33-2.19 54.18-4.2 55.19-7.76 56.19-11.31 56.19-15.91L56.19-15.91Q56.19-20.7 55.05-24.19 53.91-27.67 51.97-29.57 50.02-31.47 47.65-31.47ZM96.16-31.65L96.16-31.65 96.16-30.76Q94.73-30.58 94.01-30.02 93.3-29.46 93.05-28.25 92.81-27.05 92.81-24.86L92.81-24.86 92.81 0.09Q92.27 0.04 91.71 0.04 91.15 0.04 90.53 0.09L90.53 0.09 71.12-24.5 71.12-7.33Q71.12-4.87 71.39-3.55 71.66-2.24 72.58-1.68 73.49-1.12 75.46-0.89L75.46-0.89 75.46 0Q74.61-0.09 73.23-0.11 71.84-0.13 70.63-0.13L70.63-0.13Q69.6-0.13 68.53-0.11 67.46-0.09 66.74 0L66.74 0 66.74-0.89Q68.17-1.12 68.89-1.65 69.6-2.19 69.85-3.42 70.1-4.65 70.1-6.8L70.1-6.8 70.1-26.91Q70.1-28.57 69.85-29.35 69.6-30.13 68.87-30.42 68.13-30.71 66.74-30.76L66.74-30.76 66.74-31.65Q67.46-31.61 68.53-31.56 69.6-31.52 70.63-31.52L70.63-31.52Q71.71-31.52 72.69-31.56 73.67-31.61 74.48-31.65L74.48-31.65 91.78-10.33 91.78-24.32Q91.78-26.78 91.51-28.1 91.24-29.42 90.32-30 89.41-30.58 87.44-30.76L87.44-30.76 87.44-31.65Q88.29-31.61 89.68-31.56 91.06-31.52 92.27-31.52L92.27-31.52Q93.34-31.52 94.39-31.56 95.44-31.61 96.16-31.65ZM115.25-32.28L115.25-32.28Q118.29-32.28 120.21-31.43 122.13-30.58 123.65-29.37L123.65-29.37Q124.19-28.97 124.55-28.97L124.55-28.97Q125.4-28.97 125.66-31.65L125.66-31.65 126.69-31.65Q126.6-29.91 126.56-27.43 126.51-24.94 126.51-20.83L126.51-20.83 125.48-20.83Q125.17-23.51 124.52-25.5 123.88-27.49 122.13-28.92L122.13-28.92Q121.06-29.95 119.47-30.53 117.89-31.11 116.28-31.11L116.28-31.11Q113.82-31.11 112.07-29.84 110.33-28.57 109.21-26.38 108.09-24.19 107.56-21.44 107.02-18.69 107.02-15.74L107.02-15.74Q107.02-7.69 109.23-3.98 111.45-0.27 115.61-0.27L115.61-0.27Q116.68-0.27 117.48-0.54 118.29-0.8 118.78-1.16L118.78-1.16Q119.41-1.61 119.63-2.12 119.85-2.64 119.85-3.49L119.85-3.49 119.85-7.87Q119.85-9.92 119.52-10.93 119.18-11.94 118.2-12.29 117.21-12.65 115.34-12.7L115.34-12.7 115.34-13.59Q116.28-13.55 117.59-13.52 118.91-13.5 120.34-13.48 121.77-13.46 122.98-13.46L122.98-13.46Q124.86-13.46 126.42-13.5 127.99-13.55 128.97-13.59L128.97-13.59 128.97-12.7Q127.72-12.61 127.34-11.98 126.96-11.35 126.96-8.85L126.96-8.85 126.96 0 126.07 0Q126.02-0.76 125.73-1.65 125.44-2.55 124.77-2.55L124.77-2.55Q124.46-2.55 123.94-2.39 123.43-2.24 122.36-1.61L122.36-1.61Q120.7-0.67 118.87-0.02 117.04 0.63 115.02 0.63L115.02 0.63Q107.2 0.63 103.13-3.62 99.06-7.87 99.06-15.47L99.06-15.47Q99.06-20.56 101.14-24.32 103.22-28.07 106.87-30.18 110.51-32.28 115.25-32.28Z" transform="translate(-1.5199999809265137, 32.279998779296875)"></path></g></g></g></g> <!----></g></g><defs v-gra="od"></defs></svg>